Patient4_TMGait_0pt2_01_right_03_GRF.mot
version=1
nRows=39
nColumns=19
inDegrees=no
endheader
time	F1x	F1y	F1z	M1x	M1y	M1z	F2x	F2y	F2z	M2x	M2y	M2z	EC1x	EC1y	EC1z	EC2x	EC2y	EC2z
4.51	4.2856	670.1636	37.0582	-244.3719	-39.1037	751.5045	0.38515	109.878	-8.7994	40.3494	9.7276	115.222	-0.0592	0.0182	-0.0073	-0.0462	0.0165	0.9585
4.5348	3.9336	687.887	38.07	-251.1373	-40.1104	770.2431	-0.92157	100.6949	-7.9822	36.8094	9.2809	105.7998	-0.0592	0.0182	-0.0073	-0.0462	0.0165	0.9585
4.5596	3.5465	708.8845	39.2014	-259.0946	-41.1623	792.2677	-2.2452	89.7348	-7.0711	32.6494	8.7229	94.4795	-0.0592	0.0182	-0.0073	-0.0462	0.0165	0.9585
4.5844	3.1716	731.7782	40.3286	-267.719	-42.1138	816.0754	-3.4646	77.5591	-6.0986	28.0899	8.0506	81.8345	-0.0592	0.0182	-0.0073	-0.0462	0.0165	0.9585
4.6091	2.8821	754.8555	41.3393	-276.3697	-42.8307	839.803	-4.4647	64.76	-5.0894	23.3539	7.2598	68.4835	-0.0592	0.0182	-0.0073	-0.0462	0.0165	0.9585
4.6339	2.7806	776.2757	42.1551	-284.3649	-43.2114	861.4316	-5.1245	51.9259	-4.0737	18.6551	6.3481	55.0509	-0.0592	0.0182	-0.0073	-0.0462	0.0165	0.9585
4.6587	2.9754	794.246	42.7445	-291.0457	-43.2085	878.9908	-5.3156	39.6697	-3.0936	14.2091	5.3212	42.1908	-0.0592	0.0182	-0.0073	-0.0462	0.0165	0.9585
4.6835	3.555	807.193	43.121	-295.8377	-42.8328	890.7505	-4.9484	28.6214	-2.2062	10.2317	4.208	30.572	-0.0592	0.0182	-0.0073	-0.0462	0.0165	0.9585
4.7083	4.5738	814.022	43.3172	-298.3459	-42.1208	895.5066	-4.0882	19.3434	-1.4698	6.9115	3.0909	20.7859	-0.0592	0.0182	-0.0073	-0.0462	0.0165	0.9585
4.7331	6.0274	814.4393	43.3636	-298.4726	-41.1113	892.9378	-3.0143	12.1432	-0.91436	4.3455	2.0975	13.1578	-0.0592	0.0182	-0.0073	-0.0462	0.0165	0.9585
4.7579	7.8596	809.2038	43.2773	-296.5073	-39.8359	883.8863	-1.9631	6.9011	-0.52891	2.4807	1.297	7.5657	-0.0592	0.0182	-0.0073	-0.0462	0.0165	0.9585
4.7826	9.9855	800.0456	43.0752	-293.096	-38.3291	870.2668	-1.0566	3.2171	-0.27889	1.1674	0.69324	3.5871	-0.0592	0.0182	-0.0073	-0.0462	0.0165	0.9585
4.8074	12.3015	789.2195	42.7786	-289.0731	-36.6368	854.5769	-0.33847	0.60552	-0.1239	0.2283	0.25686	0.70977	-0.0592	0.0182	-0.0073	-0.0462	0.0165	0.9585
4.8322	14.6817	778.9173	42.4134	-285.2425	-34.8272	839.2631	0.19721	-1.3633	-0.027172	-0.4926	-0.053447	-1.5124	-0.0592	0.0182	-0.0073	-0.0462	0.0165	0.9585
4.857	17.0152	770.7248	42.014	-282.1799	-32.9875	826.1347	0.58181	-2.9654	0.03956	-1.0934	-0.27708	-3.3542	-0.0592	0.0182	-0.0073	-0.0462	0.0165	0.9585
4.8818	19.2282	765.3043	41.6291	-280.1158	-31.2147	816.0139	0.84892	-4.2504	0.097324	-1.5881	-0.44565	-4.8357	-0.0592	0.0182	-0.0073	-0.0462	0.0165	0.9585
4.9066	21.2672	762.325	41.3092	-278.9101	-29.6086	808.6653	1.0234	-4.9843	0.15673	-1.8851	-0.57532	-5.6498	-0.0592	0.0182	-0.0073	-0.0462	0.0165	0.9585
4.9314	23.0998	760.6516	41.0999	-278.1295	-28.2642	802.9945	1.1117	-4.6047	0.21681	-1.7696	-0.65921	-5.1175	-0.0592	0.0182	-0.0073	-0.0462	0.0165	0.9585
4.9561	24.7208	758.7199	41.0376	-277.191	-27.2543	797.4257	1.0938	-2.1936	0.26141	-0.89265	-0.6612	-2.1631	-0.0592	0.0182	-0.0073	-0.0462	0.0165	0.9585
4.9809	26.1648	754.9082	41.1329	-275.5009	-26.6044	790.2805	0.9232	3.5009	0.25651	1.2223	-0.51361	4.6589	-0.0592	0.0182	-0.0073	-0.0462	0.0165	0.9585
5.0057	27.4613	747.7331	41.3682	-272.5241	-26.3029	780.0004	0.52688	13.9651	0.14778	5.143	-0.1189	17.0527	-0.0592	0.0182	-0.0073	-0.0462	0.0165	0.9585
5.0305	28.5789	735.9028	41.691	-267.8001	-26.3108	765.2308	-0.1916	30.6991	-0.1334	11.445	0.6403	36.7131	-0.0592	0.0182	-0.0073	-0.0462	0.0165	0.9585
5.0553	29.4166	718.371	41.9869	-260.9618	-26.5335	744.8951	-1.3407	54.8233	-0.66612	20.5656	1.8909	64.8611	-0.0592	0.0182	-0.0073	-0.0462	0.0165	0.9585
5.0801	29.8031	694.3612	42.0945	-251.7432	-26.8393	718.2336	-3.0601	86.6429	-1.6107	32.6277	3.856	101.7399	-0.0592	0.0182	-0.0073	-0.0462	0.0165	0.9585
5.1049	29.5272	663.3913	41.8362	-239.9886	-27.0942	684.8242	-5.4681	125.3281	-3.3043	47.3001	6.9456	146.2784	-0.0592	0.0182	-0.0073	-0.0462	0.0165	0.9585
5.1296	28.4471	625.5978	41.0415	-225.7694	-27.1529	644.8704	-8.4655	168.6913	-5.9739	63.7268	11.3533	195.8595	-0.0592	0.0182	-0.0073	-0.0462	0.0165	0.9585
5.1544	26.6274	582.3321	39.6254	-209.5974	-26.885	599.7611	-11.7535	213.9677	-9.476	80.85	16.7814	247.2345	-0.0592	0.0182	-0.0073	-0.0462	0.0165	0.9585
5.1792	24.3342	536.1248	37.6523	-192.4059	-26.2371	552.0328	-14.9503	259.319	-13.3636	97.9839	22.5743	298.2503	-0.0592	0.0182	-0.0073	-0.0462	0.0165	0.9585
5.204	21.88	489.7629	35.284	-175.2164	-25.2373	504.4613	-17.6976	303.8933	-17.2072	114.8172	28.1146	347.9213	-0.0592	0.0182	-0.0073	-0.0462	0.0165	0.9585
5.2288	19.4791	445.3589	32.7044	-158.799	-23.9754	459.1387	-19.7408	347.0628	-20.756	131.1066	33.0282	395.5641	-0.0592	0.0182	-0.0073	-0.0462	0.0165	0.9585
5.2536	17.2115	403.9937	30.0815	-143.5433	-22.5786	417.11	-20.9651	388.0591	-23.8964	146.5382	37.148	440.3778	-0.0592	0.0182	-0.0073	-0.0462	0.0165	0.9585
5.2784	15.0944	365.9612	27.5429	-129.5549	-21.1645	378.6016	-21.3886	426.0731	-26.5751	160.7785	40.4228	481.5471	-0.0592	0.0182	-0.0073	-0.0462	0.0165	0.9585
5.3031	13.1518	331.2355	25.1758	-116.8296	-19.812	343.5017	-21.1099	460.5731	-28.7744	173.6056	42.8679	518.5729	-0.0592	0.0182	-0.0073	-0.0462	0.0165	0.9585
5.3279	11.4123	299.7857	23.0498	-105.362	-18.5775	311.6989	-20.2582	491.3754	-30.5162	184.9432	44.5531	551.3242	-0.0592	0.0182	-0.0073	-0.0462	0.0165	0.9585
5.3527	9.8786	271.6713	21.2248	-95.1739	-17.5181	283.2063	-18.9775	518.4739	-31.8292	194.8005	45.5636	579.8503	-0.0592	0.0182	-0.0073	-0.0462	0.0165	0.9585
5.3775	8.5224	247.0232	19.7338	-86.3028	-16.6795	258.1532	-17.4061	541.8831	-32.7061	203.2145	45.9459	604.211	-0.0592	0.0182	-0.0073	-0.0462	0.0165	0.9585
5.4023	7.3222	225.9904	18.5707	-78.7833	-16.0704	236.7094	-15.655	561.6188	-33.1079	210.2366	45.7019	624.4476	-0.0592	0.0182	-0.0073	-0.0462	0.0165	0.9585
5.4271	6.2825	208.6017	17.7009	-72.6017	-15.6662	218.9271	-13.8158	577.7811	-33.0109	215.9485	44.8412	640.6788	-0.0592	0.0182	-0.0073	-0.0462	0.0165	0.9585
5.4519	5.4269	194.5637	17.0669	-67.6298	-15.4132	204.5241	-11.9555	590.6239	-32.4518	220.4743	43.4282	653.1811	-0.0592	0.0182	-0.0073	-0.0462	0.0165	0.9585
